<?xml version="1.0" encoding="UTF-8"?>
<svg width="124px" height="125px" viewBox="0 0 124 125" version="1.1" xmlns="http://www.w3.org/2000/svg" xmlns:xlink="http://www.w3.org/1999/xlink">
    <title>fa-arrow-circle-right</title>
    <defs></defs>
    <g id="Page-1" stroke="none" stroke-width="1" fill="none" fill-rule="evenodd">
        <path d="M103.544643,62.5714286 C103.544643,61.1249928 103.062505,59.9196477 102.098214,58.9553571 L65.6964286,22.5535714 C64.732138,21.5892809 63.5267929,21.1071429 62.0803571,21.1071429 C60.6339213,21.1071429 59.4285762,21.5892809 58.4642857,22.5535714 L51.1517857,29.8660714 C50.1874952,30.830362 49.7053571,32.0357071 49.7053571,33.4821429 C49.7053571,34.9285787 50.1874952,36.1339238 51.1517857,37.0982143 L66.3392857,52.2857143 L26,52.2857143 C24.6071359,52.2857143 23.4017908,52.7946378 22.3839286,53.8125 C21.3660663,54.8303622 20.8571429,56.0357073 20.8571429,57.4285714 L20.8571429,67.7142857 C20.8571429,69.1071498 21.3660663,70.3124949 22.3839286,71.3303571 C23.4017908,72.3482194 24.6071359,72.8571429 26,72.8571429 L66.3392857,72.8571429 L51.1517857,88.0446429 C50.1339235,89.0625051 49.625,90.2678502 49.625,91.6607143 C49.625,93.0535784 50.1339235,94.2589235 51.1517857,95.2767857 L58.4642857,102.589286 C59.4285762,103.553576 60.6339213,104.035714 62.0803571,104.035714 C63.5267929,104.035714 64.732138,103.553576 65.6964286,102.589286 L102.098214,66.1875 C103.062505,65.2232095 103.544643,64.0178644 103.544643,62.5714286 Z M123.714286,62.5714286 C123.714286,73.7679131 120.955385,84.0937027 115.4375,93.5491071 C109.919615,103.004512 102.433083,110.491044 92.9776786,116.008929 C83.5222742,121.526813 73.1964846,124.285714 62,124.285714 C50.8035154,124.285714 40.4777258,121.526813 31.0223214,116.008929 C21.566917,110.491044 14.0803847,103.004512 8.5625,93.5491071 C3.04461527,84.0937027 0.285714286,73.7679131 0.285714286,62.5714286 C0.285714286,51.374944 3.04461527,41.0491544 8.5625,31.59375 C14.0803847,22.1383456 21.566917,14.6518133 31.0223214,9.13392857 C40.4777258,3.61604384 50.8035154,0.857142857 62,0.857142857 C73.1964846,0.857142857 83.5222742,3.61604384 92.9776786,9.13392857 C102.433083,14.6518133 109.919615,22.1383456 115.4375,31.59375 C120.955385,41.0491544 123.714286,51.374944 123.714286,62.5714286 Z" id="fa-arrow-circle-right" fill="#000000"></path>
    </g>
</svg>
