<?xml version="1.0" encoding="UTF-8"?>
<svg width="124px" height="135px" viewBox="0 0 124 135" version="1.1" xmlns="http://www.w3.org/2000/svg" xmlns:xlink="http://www.w3.org/1999/xlink">
    <title>fa-thumbs-o-up</title>
    <defs></defs>
    <g id="Page-1" stroke="none" stroke-width="1" fill="none" fill-rule="evenodd">
        <path d="M20.8571429,108.571429 C20.8571429,107.178564 20.3482194,105.973219 19.3303571,104.955357 C18.3124949,103.937495 17.1071498,103.428571 15.7142857,103.428571 C14.3214216,103.428571 13.1160765,103.937495 12.0982143,104.955357 C11.0803521,105.973219 10.5714286,107.178564 10.5714286,108.571429 C10.5714286,109.964293 11.0803521,111.169638 12.0982143,112.1875 C13.1160765,113.205362 14.3214216,113.714286 15.7142857,113.714286 C17.1071498,113.714286 18.3124949,113.205362 19.3303571,112.1875 C20.3482194,111.169638 20.8571429,109.964293 20.8571429,108.571429 Z M113.428571,62.2857143 C113.428571,59.5535578 112.383939,57.1562603 110.294643,55.09375 C108.205347,53.0312397 105.821442,52 103.142857,52 L74.8571429,52 C74.8571429,48.8928416 76.1428443,44.6205629 78.7142857,39.1830357 C81.2857271,33.7455085 82.5714286,29.4464444 82.5714286,26.2857143 C82.5714286,21.035688 81.7142943,17.1517983 80,14.6339286 C78.2857057,12.1160588 74.8571686,10.8571429 69.7142857,10.8571429 C68.3214216,12.250007 67.3035746,14.5267699 66.6607143,17.6875 C66.0178539,20.8482301 65.2008978,24.2098036 64.2098214,27.7723214 C63.218745,31.3348392 61.625011,34.2678456 59.4285714,36.5714286 C58.2499941,37.8035776 56.1875147,40.2410532 53.2410714,43.8839286 C53.0267846,44.1517871 52.4107194,44.9553504 51.3928571,46.2946429 C50.3749949,47.6339353 49.5312533,48.7321386 48.8616071,49.5892857 C48.1919609,50.4464329 47.267863,51.5848143 46.0892857,53.0044643 C44.9107084,54.4241142 43.8392905,55.6026739 42.875,56.5401786 C41.9107095,57.4776833 40.8794698,58.4285666 39.78125,59.3928571 C38.6830302,60.3571477 37.6116124,61.0803547 36.5669643,61.5625 C35.5223162,62.0446453 34.5714329,62.2857143 33.7142857,62.2857143 L31.1428571,62.2857143 L31.1428571,113.714286 L33.7142857,113.714286 C34.4107178,113.714286 35.2544593,113.794642 36.2455357,113.955357 C37.2366121,114.116072 38.1205318,114.290178 38.8973214,114.477679 C39.674111,114.66518 40.691958,114.959819 41.9508929,115.361607 C43.2098277,115.763395 44.1473183,116.071428 44.7633929,116.285714 C45.3794674,116.500001 46.3303507,116.834819 47.6160714,117.290179 C48.9017921,117.745538 49.6785701,118.026785 49.9464286,118.133929 C61.2500565,122.044662 70.4106792,124 77.4285714,124 L87.1517857,124 C97.4375514,124 102.580357,119.52683 102.580357,110.580357 C102.580357,109.187493 102.44643,107.687508 102.178571,106.080357 C103.785722,105.22321 105.058031,103.816974 105.995536,101.861607 C106.93304,99.9062402 107.401786,97.9375099 107.401786,95.9553571 C107.401786,93.9732044 106.919648,92.1250086 105.955357,90.4107143 C108.794657,87.7321295 110.214286,84.5446613 110.214286,80.8482143 C110.214286,79.5089219 109.946431,78.0223296 109.410714,76.3883929 C108.874997,74.7544561 108.205361,73.4821474 107.401786,72.5714286 C109.11608,72.5178569 110.549101,71.2589409 111.700893,68.7946429 C112.852684,66.3303448 113.428571,64.1607237 113.428571,62.2857143 Z M123.714286,62.2053571 C123.714286,66.9732381 122.401799,71.3392659 119.776786,75.3035714 C120.258931,77.0714374 120.5,78.9196332 120.5,80.8482143 C120.5,84.9732349 119.482153,88.8303392 117.446429,92.4196429 C117.607144,93.5446485 117.6875,94.6964227 117.6875,95.875 C117.6875,101.285741 116.080373,106.053551 112.866071,110.178571 C112.919643,117.625037 110.64288,123.504443 106.035714,127.816964 C101.428548,132.129486 95.3482521,134.285714 87.7946429,134.285714 L77.4285714,134.285714 C72.2856886,134.285714 67.2098465,133.683042 62.2008929,132.477679 C57.1919392,131.272315 51.3928901,129.517869 44.8035714,127.214286 C38.5892546,125.071418 34.892863,124 33.7142857,124 L10.5714286,124 C7.73212866,124 5.30804576,122.995546 3.29910714,120.986607 C1.29016853,118.977669 0.285714286,116.553586 0.285714286,113.714286 L0.285714286,62.2857143 C0.285714286,59.4464144 1.29016853,57.0223315 3.29910714,55.0133929 C5.30804576,53.0044542 7.73212866,52 10.5714286,52 L32.5892857,52 C34.5178668,50.7142793 38.1874729,46.5625351 43.5982143,39.5446429 C46.7053727,35.5267656 49.5714154,32.0982285 52.1964286,29.2589286 C53.4821493,27.9196362 54.4330326,25.6294805 55.0491071,22.3883929 C55.6651817,19.1473052 56.4821378,15.7589463 57.5,12.2232143 C58.5178622,8.68748232 60.1785599,5.79465411 62.4821429,3.54464286 C64.571439,1.56249009 66.9821292,0.571428571 69.7142857,0.571428571 C74.2143082,0.571428571 78.2589106,1.44195558 81.8482143,3.18303571 C85.4375179,4.92411585 88.1696335,7.64283866 90.0446429,11.3392857 C91.9196522,15.0357328 92.8571429,20.0178258 92.8571429,26.2857143 C92.8571429,31.2678821 91.5714414,36.4106878 89,41.7142857 L103.142857,41.7142857 C108.714314,41.7142857 113.535694,43.7499796 117.607143,47.8214286 C121.678592,51.8928775 123.714286,56.6874724 123.714286,62.2053571 Z" id="fa-thumbs-o-up" fill="#000000"></path>
    </g>
</svg>
